<?xml version="1.0" encoding="UTF-8"?>
<svg xmlns="http://www.w3.org/2000/svg" width="512" height="512" viewBox="0 0 512 512">
  <defs>
    <linearGradient id="sea" x1="0" y1="0" x2="0" y2="1">
      <stop offset="0" stop-color="#5fd0e6" />
      <stop offset="0.55" stop-color="#1a8fc0" />
      <stop offset="1" stop-color="#0b5a8f" />
    </linearGradient>
  </defs>

  <rect x="0" y="0" width="512" height="512" fill="url(#sea)" />

  <!-- 小さな星 -->
  <g fill="#ffe07a">
    <circle cx="102.4" cy="81.92" r="7" />
    <circle cx="409.6" cy="112.64" r="5" />
    <circle cx="358.4" cy="61.44" r="4" />
  </g>

  <!-- ヤシの木 -->
  <g>
    <path d="M 348 372.88 Q 338 297.88 322 222.88"
      fill="none" stroke="#8a5a2b" stroke-width="10" stroke-linecap="round" />
    <g fill="#1f8a5f">
      <ellipse cx="322" cy="216.88" rx="46" ry="16"
        transform="rotate(-25 322 222.88)" />
      <ellipse cx="322" cy="216.88" rx="46" ry="16"
        transform="rotate(20 322 222.88)" />
      <ellipse cx="322" cy="216.88" rx="46" ry="16"
        transform="rotate(65 322 222.88)" />
      <ellipse cx="322" cy="216.88" rx="46" ry="16"
        transform="rotate(-70 322 222.88)" />
    </g>
  </g>

  <!-- 「学」 -->
  <path d="M341 165.63L341 200.91L325.11 200.91L325.11 180.91L186.48 180.91L186.48 200.91L170.28 200.91L170.28 165.63L280.81 165.63Q294.66 146.77 302.04 120L317.52 126.36Q311.88 149.23 298.66 165.63L341 165.63M268.41 155.79L253.64 163.07Q247.08 142.25 231.19 127.39L244.41 120.41Q259.69 135.08 268.41 155.79M221.75 155.79L207.70 163.89Q203.60 149.02 181.66 131.80L195.30 123.59Q212.73 136.72 221.75 155.79M345.41 236.80L345.41 252.18L265.84 252.18L265.84 291.14Q265.84 298.01 260.72 301.45Q255.59 304.88 252.82 304.88L231.39 304.88L225.34 288.27L247.59 289.09Q249.95 289.09 249.95 284.89L249.95 252.18L166.59 252.18L166.59 236.80L249.75 236.80L249.75 228.59Q265.43 223.47 282.46 212.90L198.07 212.90L198.07 197.52L309.32 197.52L309.32 211.78Q285.84 229.62 266.66 236.80" fill="#ffffff"
    transform="translate(0 0) scale(1)" />

  <!-- 島(砂浜) -->
  <ellipse cx="256" cy="378.88" rx="150" ry="46" fill="#f4d99b" />
  <ellipse cx="256" cy="362.78" rx="129" ry="27.599999999999998" fill="#1f8a5f" opacity="0.85" />

  <rect x="0" y="0" width="512" height="512" rx="112" ry="112" fill="none" />
</svg>